<svg xmlns="http://www.w3.org/2000/svg" xmlns:xlink="http://www.w3.org/1999/xlink" width="2000" zoomAndPan="magnify" viewBox="0 0 1500 1499.999933" height="2000" preserveAspectRatio="xMidYMid meet" version="1.0"><defs><g/><clipPath id="367fee86d2"><rect x="0" width="817" y="0" height="158"/></clipPath><clipPath id="a3e06ce028"><rect x="0" width="673" y="0" height="68"/></clipPath></defs><rect x="-150" width="1800" fill="#ffffff" y="-149.999993" height="1799.99992" fill-opacity="1"/><rect x="-150" width="1800" fill="#84b59f" y="-149.999993" height="1799.99992" fill-opacity="1"/><path fill="#ffffff" d="M 823.644531 592.480469 C 822.863281 594.265625 822.078125 596.050781 821.289062 597.824219 C 818.558594 598.082031 815.4375 598.410156 812.484375 598.824219 C 804.738281 599.902344 795.007812 603.019531 775.644531 612.054688 C 756.28125 621.089844 739.824219 642.070312 726.753906 661.109375 C 713.683594 680.148438 700.773438 722.585938 690.285156 724.199219 C 679.796875 725.8125 671.246094 709.035156 667.210938 702.253906 C 663.175781 695.476562 653.171875 674.339844 648.65625 663.691406 C 644.136719 653.039062 630.796875 615.066406 623.695312 590.109375 C 616.597656 565.152344 613.800781 541.054688 613.15625 509.863281 C 612.511719 478.664062 629.71875 461.453125 644.351562 455.644531 C 644.542969 455.570312 644.738281 455.496094 644.945312 455.429688 C 652.515625 452.785156 665.738281 454.808594 681.222656 460.796875 C 696.480469 466.703125 713.945312 476.464844 730.359375 489.421875 C 730.359375 489.421875 702.066406 476.511719 682.378906 477 C 662.691406 477.484375 648.976562 488.453125 641.878906 502.652344 C 634.777344 516.851562 633.164062 546.21875 635.746094 570.101562 C 638.328125 593.980469 648.65625 630.773438 655.109375 650.78125 C 661.5625 670.789062 673.019531 689.023438 680.28125 693.863281 C 687.542969 698.703125 691.898438 691.445312 701.363281 671.003906 C 710.828125 650.566406 735.570312 627.332031 748.050781 617.21875 C 759.597656 607.859375 796.097656 594.726562 823.644531 592.480469 " fill-opacity="1" fill-rule="nonzero"/><path fill="#ffffff" d="M 643.488281 451.554688 C 654.03125 447.039062 679.417969 449.191406 703.730469 462.960938 C 728.042969 476.730469 748.050781 488.5625 772.144531 481.894531 C 796.242188 475.222656 824.644531 466.1875 842.070312 475.652344 C 859.496094 485.117188 859.277344 510.503906 852.394531 536.324219 C 845.507812 562.140625 817.542969 627.546875 803.34375 647.984375 C 789.144531 668.421875 784.625 676.816406 784.625 676.816406 C 877.78125 581.289062 887.464844 504.269531 883.914062 489.421875 C 880.367188 474.578125 876.277344 468.769531 868.960938 464.035156 C 861.648438 459.300781 842.929688 449.835938 817.109375 457.152344 C 791.296875 464.464844 781.398438 469.628906 774.515625 471.996094 C 767.628906 474.359375 750.09375 475.871094 740.628906 473.285156 C 731.160156 470.703125 699.855469 451.125 682.859375 447.898438 C 657.527344 443.273438 643.488281 451.554688 643.488281 451.554688 " fill-opacity="1" fill-rule="nonzero"/><g transform="matrix(1, 0, 0, 1, 347, 757)"><g clip-path="url(#367fee86d2)"><g fill="#ffffff" fill-opacity="1"><g transform="translate(0.590009, 124.089826)"><g><path d="M 39 -89.296875 C 33.445312 -87.734375 28.894531 -85.046875 25.34375 -81.234375 C 21.789062 -77.421875 19.125 -72.957031 17.34375 -67.84375 C 15.570312 -62.738281 14.617188 -57.410156 14.484375 -51.859375 C 14.359375 -46.316406 14.90625 -41.078125 16.125 -36.140625 C 17.507812 -31.191406 19.648438 -26.359375 22.546875 -21.640625 C 25.453125 -16.921875 28.941406 -12.785156 33.015625 -9.234375 C 37.085938 -5.679688 41.613281 -3.164062 46.59375 -1.6875 C 51.582031 -0.21875 56.847656 -0.21875 62.390625 -1.6875 C 67.242188 -2.988281 71.296875 -5.175781 74.546875 -8.25 C 77.796875 -11.332031 80.375 -14.972656 82.28125 -19.171875 C 84.1875 -23.378906 85.441406 -27.820312 86.046875 -32.5 L 86.046875 -15.984375 C 80.148438 -8.535156 72.351562 -3.554688 62.65625 -1.046875 C 56.414062 0.773438 50.304688 1.273438 44.328125 0.453125 C 38.347656 -0.367188 32.800781 -2.296875 27.6875 -5.328125 C 22.570312 -8.359375 18.128906 -12.28125 14.359375 -17.09375 C 10.585938 -21.90625 7.835938 -27.382812 6.109375 -33.53125 C 4.546875 -39.6875 4.195312 -45.773438 5.0625 -51.796875 C 5.9375 -57.816406 7.867188 -63.445312 10.859375 -68.6875 C 13.847656 -73.9375 17.703125 -78.421875 22.421875 -82.140625 C 27.140625 -85.867188 32.578125 -88.554688 38.734375 -90.203125 C 44.535156 -91.765625 49.710938 -92.4375 54.265625 -92.21875 C 58.816406 -92.007812 62.78125 -91.253906 66.15625 -89.953125 C 69.539062 -88.648438 72.359375 -87.195312 74.609375 -85.59375 C 76.859375 -83.988281 78.523438 -82.578125 79.609375 -81.359375 C 80.691406 -80.148438 81.234375 -79.546875 81.234375 -79.546875 L 81.234375 -66.03125 C 81.234375 -66.03125 80.84375 -66.765625 80.0625 -68.234375 C 79.289062 -69.710938 78.125 -71.554688 76.5625 -73.765625 C 75 -75.972656 73.046875 -78.242188 70.703125 -80.578125 C 68.367188 -82.921875 65.640625 -85.003906 62.515625 -86.828125 C 59.398438 -88.648438 55.890625 -89.84375 51.984375 -90.40625 C 48.085938 -90.96875 43.757812 -90.597656 39 -89.296875 Z M 39 -89.296875 "/></g></g></g><g fill="#ffffff" fill-opacity="1"><g transform="translate(102.368945, 124.089826)"><g><path d="M 59.53125 -19.234375 L 56.40625 0 L 4.546875 0 L 4.546875 -91.765625 L 14.953125 -91.765625 L 14.953125 -1.046875 L 36.921875 -1.046875 C 42.546875 -1.046875 47.113281 -2.429688 50.625 -5.203125 C 54.132812 -7.972656 57.101562 -12.648438 59.53125 -19.234375 Z M 59.53125 -19.234375 "/></g></g></g><g fill="#ffffff" fill-opacity="1"><g transform="translate(177.631145, 124.089826)"><g><path d="M 4.546875 0 L 4.546875 -91.765625 L 14.296875 -91.765625 L 14.296875 0 Z M 13 -119.84375 C 14.382812 -121.144531 15.507812 -121.835938 16.375 -121.921875 C 17.238281 -122.015625 17.976562 -121.710938 18.59375 -121.015625 C 19.195312 -120.148438 19.320312 -119.28125 18.96875 -118.40625 C 18.625 -117.539062 17.675781 -116.632812 16.125 -115.6875 C 15.34375 -115.164062 14.039062 -114.363281 12.21875 -113.28125 C 10.394531 -112.195312 8.507812 -111.09375 6.5625 -109.96875 C 4.613281 -108.84375 2.921875 -107.890625 1.484375 -107.109375 C 0.0546875 -106.328125 -0.65625 -105.9375 -0.65625 -105.9375 L -0.78125 -106.328125 C -0.78125 -106.328125 -0.21875 -106.910156 0.90625 -108.078125 C 2.03125 -109.253906 3.414062 -110.640625 5.0625 -112.234375 C 6.71875 -113.835938 8.28125 -115.351562 9.75 -116.78125 C 11.21875 -118.21875 12.300781 -119.238281 13 -119.84375 Z M 13 -119.84375 "/></g></g></g><g fill="#ffffff" fill-opacity="1"><g transform="translate(207.658837, 124.089826)"><g><path d="M 4.546875 -91.765625 L 14.296875 -91.765625 C 21.398438 -91.765625 27.703125 -89.359375 33.203125 -84.546875 C 38.710938 -79.742188 43.328125 -73.570312 47.046875 -66.03125 C 50.867188 -58.925781 53.90625 -51.101562 56.15625 -42.5625 C 58.40625 -34.03125 60.007812 -25.5625 60.96875 -17.15625 L 60.96875 -91.765625 L 70.71875 -91.765625 L 70.71875 0 L 60.96875 0 C 60.96875 -6.9375 60.425781 -14.257812 59.34375 -21.96875 C 58.257812 -29.675781 56.65625 -37.300781 54.53125 -44.84375 C 52.40625 -52.382812 49.738281 -59.273438 46.53125 -65.515625 C 42.632812 -72.960938 38.039062 -79.046875 32.75 -83.765625 C 27.46875 -88.492188 21.316406 -90.859375 14.296875 -90.859375 L 14.296875 0 L 4.546875 0 Z M 4.546875 -91.765625 "/></g></g></g><g fill="#ffffff" fill-opacity="1"><g transform="translate(294.099672, 124.089826)"><g><path d="M 4.546875 0 L 4.546875 -91.765625 L 14.296875 -91.765625 L 14.296875 0 Z M 4.546875 0 "/></g></g></g><g fill="#ffffff" fill-opacity="1"><g transform="translate(324.127364, 124.089826)"><g><path d="M 39 -89.296875 C 33.445312 -87.734375 28.894531 -85.046875 25.34375 -81.234375 C 21.789062 -77.421875 19.125 -72.957031 17.34375 -67.84375 C 15.570312 -62.738281 14.617188 -57.410156 14.484375 -51.859375 C 14.359375 -46.316406 14.90625 -41.078125 16.125 -36.140625 C 17.507812 -31.191406 19.648438 -26.359375 22.546875 -21.640625 C 25.453125 -16.921875 28.941406 -12.785156 33.015625 -9.234375 C 37.085938 -5.679688 41.613281 -3.164062 46.59375 -1.6875 C 51.582031 -0.21875 56.847656 -0.21875 62.390625 -1.6875 C 67.242188 -2.988281 71.296875 -5.175781 74.546875 -8.25 C 77.796875 -11.332031 80.375 -14.972656 82.28125 -19.171875 C 84.1875 -23.378906 85.441406 -27.820312 86.046875 -32.5 L 86.046875 -15.984375 C 80.148438 -8.535156 72.351562 -3.554688 62.65625 -1.046875 C 56.414062 0.773438 50.304688 1.273438 44.328125 0.453125 C 38.347656 -0.367188 32.800781 -2.296875 27.6875 -5.328125 C 22.570312 -8.359375 18.128906 -12.28125 14.359375 -17.09375 C 10.585938 -21.90625 7.835938 -27.382812 6.109375 -33.53125 C 4.546875 -39.6875 4.195312 -45.773438 5.0625 -51.796875 C 5.9375 -57.816406 7.867188 -63.445312 10.859375 -68.6875 C 13.847656 -73.9375 17.703125 -78.421875 22.421875 -82.140625 C 27.140625 -85.867188 32.578125 -88.554688 38.734375 -90.203125 C 44.535156 -91.765625 49.710938 -92.4375 54.265625 -92.21875 C 58.816406 -92.007812 62.78125 -91.253906 66.15625 -89.953125 C 69.539062 -88.648438 72.359375 -87.195312 74.609375 -85.59375 C 76.859375 -83.988281 78.523438 -82.578125 79.609375 -81.359375 C 80.691406 -80.148438 81.234375 -79.546875 81.234375 -79.546875 L 81.234375 -66.03125 C 81.234375 -66.03125 80.84375 -66.765625 80.0625 -68.234375 C 79.289062 -69.710938 78.125 -71.554688 76.5625 -73.765625 C 75 -75.972656 73.046875 -78.242188 70.703125 -80.578125 C 68.367188 -82.921875 65.640625 -85.003906 62.515625 -86.828125 C 59.398438 -88.648438 55.890625 -89.84375 51.984375 -90.40625 C 48.085938 -90.96875 43.757812 -90.597656 39 -89.296875 Z M 39 -89.296875 "/></g></g></g><g fill="#ffffff" fill-opacity="1"><g transform="translate(425.9063, 124.089826)"><g><path d="M 67.71875 0 L 53.03125 -35.21875 C 47.488281 -34.707031 42.914062 -33.582031 39.3125 -31.84375 C 35.71875 -30.113281 32.816406 -28.015625 30.609375 -25.546875 C 28.398438 -23.078125 26.625 -20.5 25.28125 -17.8125 C 23.9375 -15.125 22.742188 -12.609375 21.703125 -10.265625 C 20.492188 -7.054688 19.171875 -4.390625 17.734375 -2.265625 C 16.304688 -0.148438 14.117188 0.863281 11.171875 0.78125 C 10.828125 0.695312 10.503906 0.609375 10.203125 0.515625 C 9.898438 0.429688 9.53125 0.21875 9.09375 -0.125 C 5.539062 -1.6875 4.113281 -5.457031 4.8125 -11.4375 C 5.15625 -14.300781 5.78125 -17.53125 6.6875 -21.125 C 7.601562 -24.71875 8.84375 -28.59375 10.40625 -32.75 C 12.738281 -38.988281 15.484375 -45.597656 18.640625 -52.578125 C 21.804688 -59.554688 25.144531 -66.445312 28.65625 -73.25 C 32.164062 -80.050781 35.566406 -86.222656 38.859375 -91.765625 L 39.78125 -91.765625 L 78.640625 0 Z M 52.640625 -36.140625 L 33.53125 -80.59375 C 29.550781 -72.96875 25.546875 -64.929688 21.515625 -56.484375 C 17.484375 -48.035156 14.082031 -40.039062 11.3125 -32.5 C 9.75 -28.332031 8.507812 -24.472656 7.59375 -20.921875 C 6.6875 -17.367188 6.0625 -14.207031 5.71875 -11.4375 C 5.632812 -8.75 5.851562 -6.472656 6.375 -4.609375 C 6.894531 -2.742188 7.929688 -1.554688 9.484375 -1.046875 C 9.921875 -0.953125 10.242188 -0.863281 10.453125 -0.78125 C 10.671875 -0.695312 10.957031 -0.566406 11.3125 -0.390625 C 13.90625 -0.210938 15.851562 -1.117188 17.15625 -3.109375 C 18.457031 -5.109375 19.628906 -7.582031 20.671875 -10.53125 C 21.710938 -12.957031 22.925781 -15.535156 24.3125 -18.265625 C 25.695312 -20.992188 27.535156 -23.613281 29.828125 -26.125 C 32.128906 -28.632812 35.097656 -30.800781 38.734375 -32.625 C 42.367188 -34.445312 47.003906 -35.617188 52.640625 -36.140625 Z M 52.640625 -36.140625 "/></g></g></g><g fill="#ffffff" fill-opacity="1"><g transform="translate(520.276149, 124.089826)"><g/></g></g><g fill="#ffffff" fill-opacity="1"><g transform="translate(567.721747, 124.089826)"><g><path d="M 43.03125 -50.5625 C 48.488281 -50.21875 53.316406 -49.242188 57.515625 -47.640625 C 61.722656 -46.035156 65.015625 -43.476562 67.390625 -39.96875 C 69.773438 -36.457031 70.96875 -31.628906 70.96875 -25.484375 C 70.96875 -18.546875 69.382812 -13.234375 66.21875 -9.546875 C 63.0625 -5.867188 58.796875 -3.378906 53.421875 -2.078125 C 48.046875 -0.773438 42.023438 -0.0820312 35.359375 0 L 4.546875 0 L 4.546875 -91.765625 L 27.03125 -91.765625 C 33.53125 -91.765625 39.445312 -91.070312 44.78125 -89.6875 C 50.113281 -88.300781 54.335938 -86.09375 57.453125 -83.0625 C 60.566406 -80.03125 62.125 -76 62.125 -70.96875 C 62.125 -65.164062 60.257812 -60.59375 56.53125 -57.25 C 52.8125 -53.914062 48.3125 -51.6875 43.03125 -50.5625 Z M 60.828125 -25.484375 C 60.828125 -31.285156 60.046875 -35.832031 58.484375 -39.125 C 56.929688 -42.414062 54.875 -44.84375 52.3125 -46.40625 C 49.757812 -47.96875 47.007812 -48.941406 44.0625 -49.328125 C 41.113281 -49.710938 38.210938 -49.90625 35.359375 -49.90625 C 32.328125 -49.90625 29.445312 -50.75 26.71875 -52.4375 C 23.988281 -54.132812 21.664062 -56.457031 19.75 -59.40625 C 18.625 -61.132812 17.648438 -63.101562 16.828125 -65.3125 C 16.003906 -67.519531 15.332031 -69.882812 14.8125 -72.40625 L 14.8125 -1.046875 L 34.3125 -1.046875 C 37.257812 -1.046875 40.269531 -1.238281 43.34375 -1.625 C 46.425781 -2.007812 49.285156 -2.960938 51.921875 -4.484375 C 54.566406 -6.003906 56.710938 -8.429688 58.359375 -11.765625 C 60.003906 -15.097656 60.828125 -19.671875 60.828125 -25.484375 Z M 52 -70.96875 C 52 -75.90625 50.785156 -79.828125 48.359375 -82.734375 C 45.929688 -85.640625 42.8125 -87.71875 39 -88.96875 C 35.1875 -90.226562 31.195312 -90.859375 27.03125 -90.859375 L 14.8125 -90.859375 L 14.8125 -82.28125 C 14.8125 -77.769531 15.332031 -73.628906 16.375 -69.859375 C 17.414062 -66.097656 18.890625 -62.828125 20.796875 -60.046875 C 24.609375 -53.984375 29.460938 -50.953125 35.359375 -50.953125 C 38.304688 -50.953125 41.035156 -51.644531 43.546875 -53.03125 C 46.054688 -54.414062 48.09375 -56.582031 49.65625 -59.53125 C 51.21875 -62.476562 52 -66.289062 52 -70.96875 Z M 52 -70.96875 "/></g></g></g><g fill="#ffffff" fill-opacity="1"><g transform="translate(654.422547, 124.089826)"><g><path d="M 14.5625 -61.21875 L 14.5625 -1.046875 L 36.53125 -1.046875 C 42.15625 -1.046875 46.765625 -2.429688 50.359375 -5.203125 C 53.960938 -7.972656 56.929688 -12.648438 59.265625 -19.234375 L 56.28125 0 L 4.546875 0 L 4.546875 -91.765625 L 57.0625 -91.765625 L 57.0625 -81.375 C 54.03125 -84.320312 51.082031 -86.460938 48.21875 -87.796875 C 45.363281 -89.140625 42.132812 -89.984375 38.53125 -90.328125 C 34.9375 -90.679688 30.5 -90.859375 25.21875 -90.859375 L 14.5625 -90.859375 L 14.5625 -69.796875 C 14.5625 -63.910156 15.554688 -59.40625 17.546875 -56.28125 C 19.535156 -53.164062 22.523438 -51.066406 26.515625 -49.984375 C 30.503906 -48.898438 35.488281 -48.359375 41.46875 -48.359375 L 41.46875 -38.078125 C 39.5625 -40.242188 37.285156 -41.957031 34.640625 -43.21875 C 31.992188 -44.476562 29.304688 -45.78125 26.578125 -47.125 C 23.847656 -48.46875 21.398438 -50.195312 19.234375 -52.3125 C 17.066406 -54.4375 15.507812 -57.40625 14.5625 -61.21875 Z M 14.5625 -61.21875 "/></g></g></g><g fill="#ffffff" fill-opacity="1"><g transform="translate(729.424784, 124.089826)"><g><path d="M 11.171875 -69.671875 C 11.171875 -74.523438 12.34375 -78.550781 14.6875 -81.75 C 17.03125 -84.957031 20.082031 -87.453125 23.84375 -89.234375 C 27.613281 -91.015625 31.753906 -92.097656 36.265625 -92.484375 C 40.773438 -92.867188 45.238281 -92.628906 49.65625 -91.765625 C 54.070312 -90.898438 58.078125 -89.46875 61.671875 -87.46875 C 65.273438 -85.476562 67.984375 -82.96875 69.796875 -79.9375 L 69.796875 -66.296875 C 66.503906 -72.960938 62.691406 -78.160156 58.359375 -81.890625 C 54.023438 -85.617188 49.5625 -88.15625 44.96875 -89.5 C 40.375 -90.84375 36 -91.207031 31.84375 -90.59375 C 27.6875 -89.988281 24.09375 -88.644531 21.0625 -86.5625 C 18.539062 -84.914062 16.828125 -82.835938 15.921875 -80.328125 C 15.015625 -77.816406 15.273438 -74.976562 16.703125 -71.8125 C 18.128906 -68.65625 21.007812 -65.296875 25.34375 -61.734375 C 29.675781 -58.179688 35.785156 -54.546875 43.671875 -50.828125 C 48.441406 -48.828125 52.925781 -46.570312 57.125 -44.0625 C 61.332031 -41.550781 64.753906 -38.519531 67.390625 -34.96875 C 70.035156 -31.414062 71.359375 -27.082031 71.359375 -21.96875 C 71.359375 -18.5 70.6875 -15.398438 69.34375 -12.671875 C 68 -9.941406 66.160156 -7.625 63.828125 -5.71875 C 60.097656 -2.863281 55.632812 -1.046875 50.4375 -0.265625 C 45.238281 0.515625 39.800781 0.34375 34.125 -0.78125 C 28.445312 -1.90625 23.007812 -3.960938 17.8125 -6.953125 C 12.613281 -9.941406 8.191406 -13.773438 4.546875 -18.453125 L 4.546875 -36.53125 C 7.753906 -28.46875 11.785156 -21.75 16.640625 -16.375 C 21.492188 -11 26.710938 -7.007812 32.296875 -4.40625 C 37.890625 -1.8125 43.347656 -0.6875 48.671875 -1.03125 C 54.003906 -1.382812 58.707031 -3.296875 62.78125 -6.765625 C 64.945312 -8.578125 66.3125 -10.71875 66.875 -13.1875 C 67.4375 -15.65625 66.914062 -18.40625 65.3125 -21.4375 C 63.707031 -24.476562 60.757812 -27.664062 56.46875 -31 C 52.1875 -34.332031 46.273438 -37.734375 38.734375 -41.203125 C 34.054688 -43.285156 29.613281 -45.582031 25.40625 -48.09375 C 21.207031 -50.601562 17.785156 -53.59375 15.140625 -57.0625 C 12.492188 -60.53125 11.171875 -64.734375 11.171875 -69.671875 Z M 11.171875 -69.671875 "/></g></g></g></g></g><g transform="matrix(1, 0, 0, 1, 441, 930)"><g clip-path="url(#a3e06ce028)"><g fill="#ffffff" fill-opacity="1"><g transform="translate(0.423013, 52.189876)"><g><path d="M 0.59375 0 L 18.109375 -39.984375 L 19 -39.984375 L 36.515625 0 L 30.078125 0 L 25.65625 -10.609375 L 8.140625 -10.609375 L 3.78125 0 Z M 9.03125 -12.859375 L 24.71875 -12.859375 L 16.921875 -31.96875 Z M 9.03125 -12.859375 "/></g></g></g><g fill="#ffffff" fill-opacity="1"><g transform="translate(46.836171, 52.189876)"><g><path d="M 5.3125 0 L 5.3125 -39.046875 L 28.96875 -39.046875 L 28.375 -35.09375 L 17.40625 -36.921875 C 15.476562 -36.921875 13.351562 -36.585938 11.03125 -35.921875 L 11.03125 -21.59375 L 24.125 -21.59375 L 24.125 -19.34375 L 11.03125 -19.34375 L 11.03125 -2.125 L 29.3125 -3.953125 L 28.71875 0 Z M 5.3125 0 "/></g></g></g><g fill="#ffffff" fill-opacity="1"><g transform="translate(89.298418, 52.189876)"><g><path d="M 9.5625 -32.265625 C 9.5625 -30.535156 10.238281 -28.929688 11.59375 -27.453125 C 12.945312 -25.984375 14.597656 -24.6875 16.546875 -23.5625 C 18.492188 -22.445312 20.429688 -21.304688 22.359375 -20.140625 C 24.285156 -18.984375 25.925781 -17.554688 27.28125 -15.859375 C 28.632812 -14.171875 29.3125 -12.304688 29.3125 -10.265625 C 29.3125 -7.035156 28.117188 -4.398438 25.734375 -2.359375 C 23.359375 -0.316406 20.144531 0.703125 16.09375 0.703125 C 12.050781 0.703125 8.039062 -0.0625 4.0625 -1.59375 L 4.0625 -4.359375 C 8.082031 -2.359375 11.492188 -1.359375 14.296875 -1.359375 C 17.109375 -1.359375 19.300781 -2.046875 20.875 -3.421875 C 22.445312 -4.796875 23.234375 -6.703125 23.234375 -9.140625 C 23.234375 -10.796875 22.582031 -12.300781 21.28125 -13.65625 C 19.988281 -15.007812 18.414062 -16.1875 16.5625 -17.1875 C 14.71875 -18.195312 12.867188 -19.234375 11.015625 -20.296875 C 9.171875 -21.359375 7.597656 -22.703125 6.296875 -24.328125 C 5.003906 -25.960938 4.359375 -27.9375 4.359375 -30.25 C 4.359375 -32.570312 5.390625 -34.734375 7.453125 -36.734375 C 9.523438 -38.742188 12.601562 -39.75 16.6875 -39.75 C 19.363281 -39.75 22.75 -39.140625 26.84375 -37.921875 L 26.25 -33.921875 C 20.9375 -36.203125 16.394531 -37.34375 12.625 -37.34375 C 10.582031 -36.351562 9.5625 -34.660156 9.5625 -32.265625 Z M 9.5625 -32.265625 "/></g></g></g><g fill="#ffffff" fill-opacity="1"><g transform="translate(131.406858, 52.189876)"><g><path d="M 18.640625 0 L 12.921875 0 L 12.921875 -36.21875 C 11.578125 -36.53125 10.238281 -36.6875 8.90625 -36.6875 L 0.9375 -34.859375 L 0.59375 -39.046875 L 30.96875 -39.046875 L 30.671875 -34.859375 L 22.65625 -36.6875 C 21.3125 -36.6875 19.972656 -36.53125 18.640625 -36.21875 Z M 18.640625 0 "/></g></g></g><g fill="#ffffff" fill-opacity="1"><g transform="translate(172.276957, 52.189876)"><g><path d="M 11.03125 -19.34375 L 11.03125 0 L 5.3125 0 L 5.3125 -39.046875 L 11.03125 -39.046875 L 11.03125 -21.59375 L 28.90625 -21.59375 L 28.90625 -39.046875 L 34.625 -39.046875 L 34.625 0 L 28.90625 0 L 28.90625 -19.34375 Z M 11.03125 -19.34375 "/></g></g></g><g fill="#ffffff" fill-opacity="1"><g transform="translate(221.520605, 52.189876)"><g><path d="M 5.3125 0 L 5.3125 -39.046875 L 28.96875 -39.046875 L 28.375 -35.09375 L 17.40625 -36.921875 C 15.476562 -36.921875 13.351562 -36.585938 11.03125 -35.921875 L 11.03125 -21.59375 L 24.125 -21.59375 L 24.125 -19.34375 L 11.03125 -19.34375 L 11.03125 -2.125 L 29.3125 -3.953125 L 28.71875 0 Z M 5.3125 0 "/></g></g></g><g fill="#ffffff" fill-opacity="1"><g transform="translate(263.982851, 52.189876)"><g><path d="M 18.640625 0 L 12.921875 0 L 12.921875 -36.21875 C 11.578125 -36.53125 10.238281 -36.6875 8.90625 -36.6875 L 0.9375 -34.859375 L 0.59375 -39.046875 L 30.96875 -39.046875 L 30.671875 -34.859375 L 22.65625 -36.6875 C 21.3125 -36.6875 19.972656 -36.53125 18.640625 -36.21875 Z M 18.640625 0 "/></g></g></g><g fill="#ffffff" fill-opacity="1"><g transform="translate(304.852949, 52.189876)"><g><path d="M 10.734375 -39.046875 L 10.734375 0 L 5.3125 0 L 5.3125 -39.046875 Z M 10.734375 -39.046875 "/></g></g></g><g fill="#ffffff" fill-opacity="1"><g transform="translate(330.214336, 52.189876)"><g><path d="M 23.296875 0.703125 C 17.203125 0.703125 12.070312 -0.945312 7.90625 -4.25 C 3.738281 -7.550781 1.65625 -12.289062 1.65625 -18.46875 C 1.65625 -22.082031 2.34375 -25.300781 3.71875 -28.125 C 5.09375 -30.957031 6.898438 -33.179688 9.140625 -34.796875 C 13.660156 -38.097656 18.734375 -39.75 24.359375 -39.75 C 27.617188 -39.75 31.019531 -39.160156 34.5625 -37.984375 L 33.96875 -33.96875 C 32.125 -34.757812 30.691406 -35.351562 29.671875 -35.75 C 26.722656 -36.8125 23.753906 -37.34375 20.765625 -37.34375 C 16.628906 -36.394531 13.453125 -34.347656 11.234375 -31.203125 C 9.015625 -28.054688 7.90625 -24.125 7.90625 -19.40625 C 7.90625 -13.625 9.414062 -9.171875 12.4375 -6.046875 C 15.46875 -2.921875 19.457031 -1.359375 24.40625 -1.359375 C 29.363281 -1.359375 33.066406 -2.421875 35.515625 -4.546875 L 35.515625 -1.296875 C 32.128906 0.0351562 28.054688 0.703125 23.296875 0.703125 Z M 23.296875 0.703125 "/></g></g></g><g fill="#ffffff" fill-opacity="1"><g transform="translate(376.80442, 52.189876)"><g/></g></g><g fill="#ffffff" fill-opacity="1"><g transform="translate(400.868505, 52.189876)"><g><path d="M 5.3125 0 L 5.3125 -39.046875 L 16.453125 -39.046875 C 21.097656 -39.046875 25.285156 -38.0625 29.015625 -36.09375 C 31.023438 -35.070312 32.773438 -33.796875 34.265625 -32.265625 C 35.765625 -30.734375 36.960938 -28.773438 37.859375 -26.390625 C 38.765625 -24.015625 39.21875 -21.375 39.21875 -18.46875 C 39.21875 -14.289062 38.175781 -10.769531 36.09375 -7.90625 C 32.28125 -2.632812 26.109375 0 17.578125 0 Z M 16.390625 -2 C 21.390625 -2 25.398438 -3.472656 28.421875 -6.421875 C 31.453125 -9.378906 32.96875 -13.707031 32.96875 -19.40625 C 32.96875 -23.8125 31.769531 -27.578125 29.375 -30.703125 C 26.976562 -33.828125 23.867188 -35.898438 20.046875 -36.921875 C 16.628906 -36.921875 13.644531 -36.507812 11.09375 -35.6875 L 11.09375 -2.53125 C 12.34375 -2.175781 14.109375 -2 16.390625 -2 Z M 16.390625 -2 "/></g></g></g><g fill="#ffffff" fill-opacity="1"><g transform="translate(451.940186, 52.189876)"><g><path d="M 5.3125 0 L 5.3125 -39.046875 L 28.96875 -39.046875 L 28.375 -35.09375 L 17.40625 -36.921875 C 15.476562 -36.921875 13.351562 -36.585938 11.03125 -35.921875 L 11.03125 -21.59375 L 24.125 -21.59375 L 24.125 -19.34375 L 11.03125 -19.34375 L 11.03125 -2.125 L 29.3125 -3.953125 L 28.71875 0 Z M 5.3125 0 "/></g></g></g><g fill="#ffffff" fill-opacity="1"><g transform="translate(494.402432, 52.189876)"><g><path d="M 34.984375 0.65625 L 33.96875 0.65625 L 8.140625 -31.671875 L 7.90625 -31.671875 L 7.90625 0 L 5.3125 0 L 5.3125 -39.046875 L 9.671875 -39.046875 L 32.140625 -10.671875 L 32.375 -10.671875 L 32.375 -39.046875 L 34.984375 -39.046875 Z M 34.984375 0.65625 "/></g></g></g><g fill="#ffffff" fill-opacity="1"><g transform="translate(543.999886, 52.189876)"><g><path d="M 18.640625 0 L 12.921875 0 L 12.921875 -36.21875 C 11.578125 -36.53125 10.238281 -36.6875 8.90625 -36.6875 L 0.9375 -34.859375 L 0.59375 -39.046875 L 30.96875 -39.046875 L 30.671875 -34.859375 L 22.65625 -36.6875 C 21.3125 -36.6875 19.972656 -36.53125 18.640625 -36.21875 Z M 18.640625 0 "/></g></g></g><g fill="#ffffff" fill-opacity="1"><g transform="translate(584.869984, 52.189876)"><g><path d="M 0.59375 0 L 18.109375 -39.984375 L 19 -39.984375 L 36.515625 0 L 30.078125 0 L 25.65625 -10.609375 L 8.140625 -10.609375 L 3.78125 0 Z M 9.03125 -12.859375 L 24.71875 -12.859375 L 16.921875 -31.96875 Z M 9.03125 -12.859375 "/></g></g></g><g fill="#ffffff" fill-opacity="1"><g transform="translate(631.283142, 52.189876)"><g><path d="M 5.3125 0 L 5.3125 -39.046875 L 11.09375 -39.046875 L 11.09375 -3.1875 C 13.488281 -2.476562 15.414062 -2.125 16.875 -2.125 L 27.546875 -3.953125 L 26.84375 0 Z M 5.3125 0 "/></g></g></g></g></g></svg>