<svg xmlns="http://www.w3.org/2000/svg" xmlns:xlink="http://www.w3.org/1999/xlink" width="2000" zoomAndPan="magnify" viewBox="0 0 1500 1499.999933" height="2000" preserveAspectRatio="xMidYMid meet" version="1.0"><rect x="-150" width="1800" fill="none" y="-149.999993" height="1799.99992" fill-opacity="1"/><rect x="-150" width="1800" fill="none" y="-149.999993" height="1799.99992" fill-opacity="1"/><path fill="#ffffff" d="M 890.175781 765.097656 C 888.6875 768.496094 887.191406 771.890625 885.691406 775.269531 C 880.492188 775.761719 874.550781 776.382812 868.933594 777.171875 C 854.191406 779.222656 835.667969 785.160156 798.808594 802.355469 C 761.957031 819.558594 730.628906 859.484375 705.75 895.726562 C 680.875 931.964844 656.300781 1012.738281 636.335938 1015.808594 C 616.375 1018.886719 600.097656 986.945312 592.417969 974.042969 C 584.738281 961.144531 565.699219 920.90625 557.097656 900.640625 C 548.5 880.367188 523.105469 808.09375 509.59375 760.585938 C 496.078125 713.082031 490.757812 667.21875 489.53125 607.84375 C 488.300781 548.460938 521.054688 515.703125 548.90625 504.648438 C 549.273438 504.503906 549.640625 504.363281 550.035156 504.234375 C 564.445312 499.207031 589.617188 503.054688 619.089844 514.453125 C 648.132812 525.691406 681.375 544.273438 712.617188 568.9375 C 712.617188 568.9375 658.757812 544.363281 621.289062 545.289062 C 583.816406 546.210938 557.710938 567.097656 544.199219 594.117188 C 530.6875 621.148438 527.613281 677.046875 532.527344 722.5 C 537.441406 767.957031 557.097656 837.984375 569.382812 876.070312 C 581.667969 914.152344 603.476562 948.859375 617.296875 958.074219 C 631.117188 967.285156 639.410156 953.464844 657.421875 914.558594 C 675.441406 875.660156 722.53125 831.4375 746.292969 812.183594 C 768.265625 794.375 837.742188 769.371094 890.175781 765.097656 " fill-opacity="1" fill-rule="nonzero"/><path fill="#ffffff" d="M 547.265625 496.863281 C 567.332031 488.265625 615.652344 492.363281 661.929688 518.570312 C 708.203125 544.777344 746.285156 567.296875 792.152344 554.605469 C 838.019531 541.910156 892.074219 524.710938 925.242188 542.726562 C 958.414062 560.746094 958 609.066406 944.898438 658.210938 C 931.789062 707.347656 878.558594 831.84375 851.53125 870.746094 C 824.503906 909.648438 815.90625 925.621094 815.90625 925.621094 C 993.21875 743.796875 1011.648438 597.195312 1004.890625 568.9375 C 998.136719 540.683594 990.355469 529.625 976.433594 520.613281 C 962.507812 511.609375 926.878906 493.589844 877.738281 507.511719 C 828.601562 521.4375 809.761719 531.261719 796.660156 535.765625 C 783.550781 540.269531 750.175781 543.140625 732.160156 538.222656 C 714.140625 533.308594 654.554688 496.042969 622.203125 489.902344 C 573.988281 481.101562 547.265625 496.863281 547.265625 496.863281 " fill-opacity="1" fill-rule="nonzero"/></svg>